<svg xmlns="http://www.w3.org/2000/svg" version="1.1" xmlns:xlink="http://www.w3.org/1999/xlink" xmlns:svgjs="http://svgjs.dev/svgjs" width="2560" height="560" preserveAspectRatio="none" viewBox="0 0 2560 560"><g mask="url(&quot;#SvgjsMask1014&quot;)" fill="none"><rect width="2560" height="560" x="0" y="0" fill="rgba(73, 34, 18, 1)"></rect><path d="M675.02 111.66L680.88 111.66L680.88 155.44L675.02 155.44z" stroke="rgba(29, 49, 111, 1)"></path><path d="M303.02 446.71L322.3 446.71L322.3 465.99L303.02 465.99z" stroke="rgba(29, 49, 111, 1)"></path><path d="M275.19 424.24L281.77 424.24L281.77 430.82L275.19 430.82z" stroke="#d3b714"></path><path d="M1232.34 301.23a51.98 51.98 0 1 0-55.65 87.81z" fill="#037b0b"></path><path d="M1163.15 50.53L1219.05 50.53L1219.05 106.43L1163.15 106.43z" fill="rgba(29, 49, 111, 1)"></path><path d="M1341.1 483.77L1341.64 483.77L1341.64 494.12L1341.1 494.12z" fill="#037b0b"></path><path d="M973.98 503.43a6.03 6.03 0 1 0-10.22-6.4z" fill="#037b0b"></path><path d="M1209.96 75.29L1235.19 75.29L1235.19 100.52L1209.96 100.52z" stroke="rgba(29, 49, 111, 1)"></path><path d="M2159.13 14.1L2169.03 14.1L2169.03 19.12L2159.13 19.12z" stroke="rgba(29, 49, 111, 1)"></path><path d="M2363.38 439.38L2404.36 439.38L2404.36 480.36L2363.38 480.36z" stroke="#037b0b"></path><path d="M678.83 438.96 a6.87 6.87 0 1 0 13.74 0 a6.87 6.87 0 1 0 -13.74 0z" stroke="#037b0b"></path><path d="M9.63 169.37L40.68 169.37L40.68 190.43L9.63 190.43z" stroke="#d3b714"></path><path d="M1687.7 235.42 a23.06 23.06 0 1 0 46.12 0 a23.06 23.06 0 1 0 -46.12 0z" stroke="rgba(29, 49, 111, 1)"></path><path d="M327.12 176.27a11.45 11.45 0 1 0-20.59 10.03z" stroke="#d3b714"></path><path d="M669.03 453.86L702.91 453.86L702.91 458.2L669.03 458.2z" stroke="#037b0b"></path><path d="M533.98 274.78L545.51 274.78L545.51 286.31L533.98 286.31z" fill="#d3b714"></path><path d="M1411.32 480.21 a17.91 17.91 0 1 0 35.82 0 a17.91 17.91 0 1 0 -35.82 0z" stroke="#037b0b"></path><path d="M1146.39 446.5L1147.57 446.5L1147.57 447.68L1146.39 447.68z" fill="rgba(29, 49, 111, 1)"></path><path d="M281.84 372.81L309.42 372.81L309.42 400.39L281.84 400.39z" stroke="rgba(29, 49, 111, 1)"></path><path d="M670.84 173.89L697.16 173.89L697.16 200.21L670.84 200.21z" fill="#d3b714"></path><path d="M1565.44 251.12L1617.41 251.12L1617.41 303.09L1565.44 303.09z" stroke="#037b0b"></path><path d="M2544.65 113.88L2573.35 113.88L2573.35 129.7L2544.65 129.7z" fill="rgba(29, 49, 111, 1)"></path><path d="M807.76 444.57a31.54 31.54 0 1 0-32.63 53.99z" stroke="rgba(29, 49, 111, 1)"></path><path d="M1055.25 416.66a14.09 14.09 0 1 0 27.01-8.04z" stroke="#d3b714"></path><path d="M944.14 248.46 a14.03 14.03 0 1 0 28.06 0 a14.03 14.03 0 1 0 -28.06 0z" stroke="#037b0b"></path><path d="M1473.45 176.72 a9.72 9.72 0 1 0 19.44 0 a9.72 9.72 0 1 0 -19.44 0z" stroke="rgba(29, 49, 111, 1)"></path><path d="M2166.62 273.44L2218.81 273.44L2218.81 321.76L2166.62 321.76z" stroke="#037b0b"></path><path d="M2016.09 209.56a3.73 3.73 0 1 0-6.37-3.87z" fill="#d3b714"></path><path d="M243.84 544.69a18.97 18.97 0 1 0 35.02-14.58z" fill="#037b0b"></path><path d="M676.33 151.4L700.17 151.4L700.17 175.24L676.33 175.24z" fill="rgba(29, 49, 111, 1)"></path><path d="M498.93 465.22a25.87 25.87 0 1 0 1.03-51.73z" stroke="#d3b714"></path><path d="M1575.34 141.42 a6.75 6.75 0 1 0 13.5 0 a6.75 6.75 0 1 0 -13.5 0z" fill="#d3b714"></path><path d="M1020.69 277.7a20.38 20.38 0 1 0 30.34 27.22z" fill="#037b0b"></path><path d="M1586.92 34.53 a18.5 18.5 0 1 0 37 0 a18.5 18.5 0 1 0 -37 0z" fill="rgba(29, 49, 111, 1)"></path><path d="M1508.05 254.53L1562 254.53L1562 270.99L1508.05 270.99z" fill="rgba(29, 49, 111, 1)"></path><path d="M36.6 233.25L39.73 233.25L39.73 236.38L36.6 236.38z" stroke="#d3b714"></path><path d="M2454.77 238.76 a5 5 0 1 0 10 0 a5 5 0 1 0 -10 0z" fill="#d3b714"></path><path d="M361.2 419.02L375.79 419.02L375.79 439.96L361.2 439.96z" fill="#d3b714"></path><path d="M2060.75 30.36L2073.22 30.36L2073.22 42.83L2060.75 42.83z" stroke="#d3b714"></path><path d="M135.56 199.2L149.38 199.2L149.38 240.86L135.56 240.86z" fill="#037b0b"></path><path d="M354.12 90.21L367.81 90.21L367.81 103.9L354.12 103.9z" fill="#d3b714"></path><path d="M2444.4 234.29a25.62 25.62 0 1 0-49.6-12.88z" stroke="rgba(29, 49, 111, 1)"></path><path d="M1978.88 480.14a2.36 2.36 0 1 0 3.79-2.81z" fill="#037b0b"></path><path d="M506.16 274.18L531.13 274.18L531.13 327.38L506.16 327.38z" fill="rgba(29, 49, 111, 1)"></path><path d="M645.11 331.56L681.22 331.56L681.22 344.8L645.11 344.8z" fill="#d3b714"></path><path d="M1078.21 214.22L1116.97 214.22L1116.97 252.98L1078.21 252.98z" stroke="#037b0b"></path><path d="M1456.1 509.28a18.42 18.42 0 1 0 6.57 36.25z" fill="rgba(29, 49, 111, 1)"></path><path d="M1990.87 549.98a26.9 26.9 0 1 0 10.64-52.74z" fill="#037b0b"></path><path d="M1889.06 544.03L1902.67 544.03L1902.67 557.64L1889.06 557.64z" fill="#037b0b"></path><path d="M901.68 536.2 a13.63 13.63 0 1 0 27.26 0 a13.63 13.63 0 1 0 -27.26 0z" fill="rgba(29, 49, 111, 1)"></path><path d="M2235.11 132.48L2284.28 132.48L2284.28 181.65L2235.11 181.65z" fill="#d3b714"></path><path d="M69.29 43.56L89.4 43.56L89.4 63.67L69.29 63.67z" stroke="#d3b714"></path><path d="M2019.61 412.94L2042 412.94L2042 466.11L2019.61 466.11z" stroke="#d3b714"></path><path d="M842.04 47.82 a36.39 36.39 0 1 0 72.78 0 a36.39 36.39 0 1 0 -72.78 0z" fill="rgba(29, 49, 111, 1)"></path><path d="M441.96 334.74 a8.67 8.67 0 1 0 17.34 0 a8.67 8.67 0 1 0 -17.34 0z" fill="rgba(29, 49, 111, 1)"></path><path d="M1463.42 382.74L1466.04 382.74L1466.04 433.3L1463.42 433.3z" fill="rgba(29, 49, 111, 1)"></path><path d="M1884.46 274.63a12.25 12.25 0 1 0 12.72-20.94z" fill="#037b0b"></path><path d="M897.05 40.45a26.68 26.68 0 1 0-21.29 48.93z" stroke="#d3b714"></path></g><defs><mask id="SvgjsMask1014"><rect width="2560" height="560" fill="#ffffff"></rect></mask></defs></svg>