<svg xmlns="http://www.w3.org/2000/svg" version="1.1" xmlns:xlink="http://www.w3.org/1999/xlink" xmlns:svgjs="http://svgjs.dev/svgjs" width="2560" height="640" preserveAspectRatio="none" viewBox="0 0 2560 640"><g mask="url(&quot;#SvgjsMask1789&quot;)" fill="none"><rect width="2560" height="640" x="0" y="0" fill="url(&quot;#SvgjsLinearGradient1790&quot;)"></rect><path d="M 0,297 C 512,255.8 2048,132.2 2560,91L2560 640L0 640z" fill="#184a7e"></path><path d="M 0,521 C 73.2,484 219.6,318.2 366,336 C 512.4,353.8 585.6,585.6 732,610 C 878.4,634.4 951.6,467 1098,458 C 1244.4,449 1317.6,586.6 1464,565 C 1610.4,543.4 1683.6,340 1830,350 C 1976.4,360 2050,613 2196,615 C 2342,617 2487.2,411 2560,360L2560 640L0 640z" fill="#2264ab"></path></g><defs><mask id="SvgjsMask1789"><rect width="2560" height="640" fill="#ffffff"></rect></mask><linearGradient x1="18.75%" y1="175%" x2="81.25%" y2="-75%" gradientUnits="userSpaceOnUse" id="SvgjsLinearGradient1790"><stop stop-color="rgba(7, 11, 15, 1)" offset="0.24"></stop><stop stop-color="rgba(30, 83, 151, 1)" offset="0.5"></stop></linearGradient></defs></svg>